<?xml version="1.0" standalone="no"?>
<!DOCTYPE svg PUBLIC "-//W3C//DTD SVG 20010904//EN"
 "http://www.w3.org/TR/2001/REC-SVG-20010904/DTD/svg10.dtd">
<svg version="1.0" xmlns="http://www.w3.org/2000/svg"
 width="2044.000000pt" height="2044.000000pt" viewBox="0 0 2044.000000 2044.000000"
 preserveAspectRatio="xMidYMid meet">
<metadata>
Created by potrace 1.14, written by Peter Selinger 2001-2017
</metadata>
<g transform="translate(0.000000,2044.000000) scale(0.100000,-0.100000)"
fill="#000000" stroke="none">
<path d="M0 10220 l0 -10220 10220 0 10220 0 0 10220 0 10220 -10220 0 -10220
0 0 -10220z m9343 9119 c549 -277 1334 -820 1909 -1320 224 -195 778 -748 956
-954 81 -93 198 -228 261 -300 104 -119 200 -245 517 -676 61 -84 153 -220
204 -303 240 -389 290 -471 290 -482 0 -12 -119 -55 -187 -69 -21 -4 -33 -13
-33 -22 0 -16 56 -16 221 3 l56 6 115 -218 c64 -121 152 -295 196 -389 85
-183 232 -511 232 -520 0 -3 25 -68 55 -144 58 -146 63 -166 43 -174 -7 -3
-76 -31 -153 -62 -155 -63 -271 -121 -278 -138 -6 -15 1 -84 73 -802 11 -110
29 -294 40 -410 11 -115 29 -300 40 -410 11 -110 29 -294 40 -410 39 -413 60
-620 65 -645 2 -14 12 -112 20 -219 22 -270 23 -275 110 -389 277 -368 785
-736 1297 -941 453 -181 854 -246 1118 -182 259 64 486 166 781 353 493 312
911 760 1130 1212 l53 108 -13 126 c-7 70 -21 217 -31 327 -26 274 -48 494
-65 660 -14 135 -24 232 -80 820 -14 149 -32 333 -40 410 -9 77 -17 165 -20
195 -5 54 -37 372 -55 544 -5 49 -14 94 -19 99 -11 11 -160 48 -316 78 -60 11
-112 25 -115 30 -3 5 -7 156 -8 336 -2 445 -23 733 -82 1145 -80 557 -250
1206 -441 1685 -17 43 -45 116 -61 163 -100 284 -460 990 -648 1270 -55 83
-57 89 -9 39 24 -25 76 -71 114 -103 175 -145 653 -612 1080 -1056 292 -303
810 -911 1070 -1255 71 -93 158 -208 195 -255 100 -128 248 -344 271 -394 32
-72 80 -416 99 -705 26 -399 30 -553 20 -831 -27 -783 -95 -1310 -285 -2215
-163 -783 -286 -1468 -355 -1985 -12 -85 -30 -218 -40 -295 -50 -368 -52 -401
-46 -630 21 -798 18 -1060 -20 -1570 -67 -898 -258 -1688 -557 -2307 -113
-233 -215 -402 -436 -723 -205 -298 -509 -697 -690 -905 -31 -36 -102 -117
-156 -180 -347 -402 -958 -1006 -1315 -1301 -30 -25 -134 -111 -230 -191 -159
-131 -237 -191 -578 -441 -104 -77 -253 -177 -536 -360 -358 -232 -1262 -713
-1361 -724 -76 -9 -645 63 -975 123 -668 121 -1008 197 -1510 340 -386 109
-668 203 -1150 384 -217 81 -444 164 -505 183 -162 52 -572 197 -710 252 -66
26 -143 55 -171 65 -85 30 -591 250 -717 312 -65 32 -120 58 -123 58 -7 0
-426 210 -439 220 -5 4 -84 47 -175 95 -91 48 -243 134 -338 192 -94 57 -176
102 -181 99 -11 -7 -244 233 -400 413 -159 184 -379 451 -546 666 -623 799
-1379 2001 -1913 3040 -90 176 -189 367 -219 425 -83 158 -202 416 -229 497
-24 73 -90 550 -113 823 -6 69 -16 170 -21 225 -52 522 -77 872 -100 1440 -6
143 -14 323 -19 400 -9 183 -7 1390 3 1613 5 103 12 168 17 160 5 -7 9 -24 9
-38 0 -35 53 -241 150 -585 117 -417 441 -1368 559 -1644 23 -52 41 -102 41
-112 0 -9 -20 -61 -44 -116 -232 -522 -246 -1037 -42 -1515 53 -124 78 -168
196 -342 122 -181 282 -338 475 -466 77 -51 175 -110 217 -131 73 -37 238
-102 238 -94 0 2 -35 23 -78 46 -60 33 -104 70 -202 168 -140 141 -202 231
-276 402 -59 137 -70 170 -104 323 -42 190 -57 407 -41 599 16 196 22 240 31
230 9 -9 244 -515 280 -603 22 -52 51 -97 36 -57 -43 122 -206 958 -206 1056
0 62 66 234 147 386 42 77 85 154 96 170 44 65 160 215 166 215 3 0 28 -44 56
-97 56 -112 58 -123 31 -283 -23 -138 -33 -536 -17 -692 42 -403 144 -764 317
-1113 216 -438 498 -778 864 -1039 442 -316 951 -432 1407 -321 290 71 532
211 744 433 306 318 485 725 555 1257 17 130 24 548 10 592 -6 18 -19 21 -109
26 -116 7 -270 43 -343 80 -70 36 -162 114 -201 171 -86 125 -75 256 30 364
72 75 225 137 365 149 46 4 72 10 72 18 0 30 -120 297 -193 430 -201 364 -460
667 -765 893 -82 60 -99 78 -85 83 35 13 231 29 498 40 207 9 315 9 462 0 336
-21 496 -48 736 -126 286 -93 424 -180 545 -343 29 -41 56 -72 58 -69 6 6 -65
175 -99 231 -44 75 -114 164 -190 239 -38 38 -68 69 -66 71 2 1 31 17 64 35
74 41 239 158 322 228 34 29 69 53 77 53 8 0 47 -22 88 -48 221 -147 472 -268
658 -317 193 -52 432 -45 550 15 52 27 51 41 -2 27 -78 -20 -251 24 -411 105
-454 227 -1150 917 -1841 1827 -248 326 -439 597 -689 979 -94 142 -104 162
-84 162 12 0 105 -18 207 -39 102 -22 232 -47 290 -56 378 -60 453 -75 485
-97 18 -13 100 -83 181 -156 193 -173 678 -565 1014 -819 997 -753 2023 -1408
3220 -2053 194 -104 718 -362 728 -359 19 7 -218 587 -448 1099 -196 436 -540
1135 -767 1560 -229 427 -579 1035 -768 1335 -45 72 -127 200 -180 285 -93
147 -303 465 -452 685 -187 274 -736 1001 -937 1240 -178 211 -582 667 -841
950 -55 61 -161 177 -235 260 -74 82 -251 278 -393 434 -219 240 -257 286
-245 297 15 15 278 138 463 216 66 28 228 96 360 153 132 56 249 105 260 108
40 10 57 6 118 -24z m6170 -2206 l88 -83 -18 -31 c-21 -37 -62 -71 -74 -63 -5
3 -23 31 -38 63 -16 32 -80 134 -141 227 l-112 169 103 -100 c57 -55 144 -137
192 -182z m373 -389 c177 -196 523 -638 652 -834 304 -461 574 -1008 705
-1430 47 -150 87 -284 87 -291 0 -3 -42 -1 -92 3 -51 3 -171 10 -266 14 -154
6 -174 9 -183 26 -5 10 -52 134 -103 276 -183 502 -342 879 -560 1327 -131
268 -325 633 -437 822 -44 72 -79 139 -79 148 0 20 81 125 96 125 6 0 87 -84
180 -186z m-10508 -59 c214 -549 559 -1260 870 -1793 92 -159 91 -153 34 -137
-357 97 -1252 397 -1451 488 l-50 22 125 320 c204 523 261 719 334 1135 31
177 37 206 44 199 2 -2 45 -107 94 -234z m872 -490 c68 -73 387 -424 649 -715
219 -242 649 -685 881 -905 133 -126 237 -231 232 -233 -15 -5 -206 33 -502
99 -335 75 -360 82 -392 116 -27 29 -199 309 -346 563 -319 550 -712 1294
-634 1200 20 -25 70 -81 112 -125z m-1315 -1135 c409 -178 890 -347 1422 -500
40 -11 85 -31 101 -45 16 -13 66 -84 112 -157 660 -1048 1449 -1985 2160
-2565 74 -60 161 -127 193 -148 l57 -38 -29 -18 c-66 -40 -342 -125 -514 -158
-82 -16 -112 -18 -143 -10 -21 6 -43 14 -47 19 -5 4 42 42 105 85 111 75 209
162 270 238 17 21 28 40 25 43 -3 3 -33 -13 -68 -36 -84 -58 -213 -117 -305
-140 -86 -22 -227 -26 -315 -10 -29 6 -101 15 -160 20 -59 5 -125 16 -146 25
-53 23 -419 71 -655 86 -375 24 -887 -21 -1353 -120 -152 -33 -340 -85 -544
-152 -101 -33 -185 -58 -186 -57 -14 15 -125 445 -169 653 -102 489 -186 1248
-186 1684 0 257 35 679 75 917 32 185 89 419 112 456 2 4 18 2 36 -6 18 -8 86
-37 152 -66z m-1054 -1692 c71 -245 237 -728 329 -958 99 -248 312 -720 415
-918 41 -79 75 -147 75 -152 0 -5 -10 -12 -22 -16 -43 -13 -363 -171 -492
-242 -130 -73 -146 -80 -146 -62 0 5 -11 74 -25 152 -56 320 -113 722 -125
888 -48 639 -56 832 -45 1153 4 125 9 227 11 227 2 0 13 -33 25 -72z m12472
-890 c3 -35 12 -157 19 -272 l12 -209 111 6 c60 3 173 12 250 21 77 8 194 20
260 26 335 31 394 42 539 100 151 61 246 76 377 60 49 -6 94 -13 101 -15 24
-9 38 -44 45 -108 3 -34 17 -89 32 -122 21 -49 25 -76 26 -146 0 -94 -10 -116
-65 -144 -36 -18 -145 -35 -227 -35 -79 0 -126 14 -228 68 l-70 37 -455 -1
c-394 -2 -662 -13 -678 -28 -2 -3 1 -51 7 -108 6 -57 20 -204 31 -328 22 -239
53 -563 70 -720 8 -69 20 -117 46 -180 73 -172 86 -226 86 -340 0 -106 -12
-177 -38 -217 -12 -19 -23 -23 -68 -23 -33 0 -86 -11 -142 -31 -76 -26 -100
-30 -167 -27 -72 3 -81 6 -103 31 -37 43 -48 100 -49 242 l0 130 45 85 45 85
-1 520 c0 548 -14 834 -40 856 -11 9 -47 8 -147 0 -417 -38 -964 -113 -1057
-146 -19 -7 -78 -38 -130 -70 -124 -75 -189 -103 -278 -121 -135 -26 -202 -13
-233 46 -28 52 -24 114 11 188 36 77 37 102 5 194 -34 97 -34 166 1 208 44 51
112 80 191 80 54 0 92 -9 183 -41 321 -113 270 -102 515 -107 147 -2 290 2
430 13 116 9 266 19 335 22 69 3 133 10 142 15 20 10 20 19 -17 313 -14 113
-19 184 -13 192 5 6 40 17 77 23 37 6 90 17 117 25 89 24 90 23 97 -47z
m-12974 -1100 c97 -254 233 -578 258 -617 15 -24 14 -26 -44 -80 -193 -181
-237 -221 -243 -221 -7 0 -34 270 -50 496 -30 434 -38 703 -20 673 5 -9 50
-121 99 -251z"/>
<path d="M13725 7147 c-17 -42 34 -232 59 -224 18 6 18 49 2 127 -17 78 -49
130 -61 97z"/>
<path d="M7371 6920 c-255 -167 -676 -321 -949 -346 -76 -7 -91 -16 -72 -39
12 -15 21 -14 197 16 255 43 607 178 816 311 72 46 117 89 117 109 0 17 -19 8
-109 -51z"/>
<path d="M13260 5309 c-146 -3 -274 -8 -285 -12 -11 -3 -87 -13 -170 -22 -82
-8 -184 -20 -225 -26 -97 -13 -464 -80 -469 -85 -2 -2 14 -4 37 -4 107 0 539
-149 762 -263 365 -187 634 -410 848 -705 76 -106 189 -327 225 -442 32 -103
66 -292 61 -340 -4 -33 -4 -33 6 -10 39 89 103 389 119 554 39 398 -44 864
-220 1232 -38 80 -54 103 -76 112 -38 14 -289 19 -613 11z"/>
<path d="M14031 3354 c0 -11 3 -14 6 -6 3 7 2 16 -1 19 -3 4 -6 -2 -5 -13z"/>
<path d="M11130 2294 c0 -3 60 -34 133 -69 229 -111 476 -182 716 -205 140
-14 360 -12 451 4 73 13 71 13 -80 8 -160 -5 -356 8 -515 34 -184 30 -451 113
-605 188 -78 38 -100 47 -100 40z"/>
<path d="M12528 2043 c7 -3 16 -2 19 1 4 3 -2 6 -13 5 -11 0 -14 -3 -6 -6z"/>
</g>
</svg>
